<mxfile host="app.diagrams.net" modified="2024-04-09T20:18:18.880Z" agent="Mozilla/5.0 (Windows NT 10.0; Win64; x64) AppleWebKit/537.36 (KHTML, like Gecko) Chrome/123.0.0.0 Safari/537.36 Edg/123.0.0.0" version="24.2.3" etag="8K1CeHca4P2hpjjLL_6B" type="github">
  <diagram name="Page-1" id="Mz2FXthN1rEHPRWI6OPG">
    <mxGraphModel>
      <root>
        <mxCell id="0" />
        <mxCell id="1" parent="0" />
      </root>
    </mxGraphModel>
  </diagram>
</mxfile>
